# xmcd
#
# Track frame offsets:
#	150
#	15523
#	33372
#	48148
#	64124
#	78374
#	93973
#	107773
#	120074
#	134099
#	150825
#	166199
#	184050
#	198825
#	214800
#	229050
#	244650
#	258448
#	270750
#	284775
#
# Disc length: 4020 seconds
#
# Revision: 1
# Processed by: cddbd v1.5.1PL0 Copyright (c) Steve Scherf et al.
# Submitted via: audiograbber 1.82.02
#
DISCID=fd0fb214
DTITLE=Various Artist - Country Hits Today 9809C
DYEAR=1900
DGENRE=Karaoke
TTITLE0=Brooks and Dunn - How long gone
TTITLE1=Reba McEntire - Forever Love
TTITLE2=Forever Love - I'm alright
TTITLE3=George Strait - True
TTITLE4=Randy Travis - The hole
TTITLE5=Diamond Rio - You're Gone
TTITLE6=Pam Tillis - I said a prayer
TTITLE7=Joe Diffie - Texas size heartache 
TTITLE8=Patty Loveless - High on love
TTITLE9=Dwight Yoakam - Things Change
TTITLE10=Brooks and Dunn W - Vocals - How long gone W - Vocals
TTITLE11=Reba McEntire W - Vocals - Forever Love W - Vocals
TTITLE12=Forever Love W - Vocals - I'm alright W - Vocals
TTITLE13=George Strait W - Vocals - True W - Vocals
TTITLE14=Randy Travis W - Vocals - The hole W - Vocals
TTITLE15=Diamond Rio W - Vocals - You're Gone W - Vocals
TTITLE16=Pam Tillis W - Vocals - I said a prayer W - Vocals
TTITLE17=Joe Diffie W - Vocals - Texas size heartache  W - Vocals
TTITLE18=Patti Loveless W - Vocals - High on love W - Vocals
TTITLE19=Dwight Yoakam W - Vocals - Things Change W - Vocals
EXTD=
EXTT0=
EXTT1=
EXTT2=
EXTT3=
EXTT4=
EXTT5=
EXTT6=
EXTT7=
EXTT8=
EXTT9=
EXTT10=
EXTT11=
EXTT12=
EXTT13=
EXTT14=
EXTT15=
EXTT16=
EXTT17=
EXTT18=
EXTT19=
PLAYORDER=
